<?xml version="1.0" encoding="UTF-8" standalone="no"?>
<!DOCTYPE svg PUBLIC "-//W3C//DTD SVG 1.1//EN"
 "http://www.w3.org/Graphics/SVG/1.1/DTD/svg11.dtd">
<!-- Generated by graphviz version 14.0.2 (20251019.1705)
 -->
<!-- Title: ComponentNamespace::oMessage_Model::B_oMessage_Model_T Pages: 1 -->
<svg width="228pt" height="126pt"
 viewBox="0.00 0.00 228.00 126.00" xmlns="http://www.w3.org/2000/svg" xmlns:xlink="http://www.w3.org/1999/xlink">
<g id="graph0" class="graph" transform="scale(1 1) rotate(0) translate(4 122)">
<title>ComponentNamespace::oMessage_Model::B_oMessage_Model_T</title>
<!-- Node1 -->
<g id="Node000001" class="node">
<title>Node1</title>
<g id="a_Node000001"><a xlink:title=" ">
<polygon fill="#999999" stroke="#666666" points="166.88,-44 48.12,-44 48.12,0 166.88,0 166.88,-44"/>
<text xml:space="preserve" text-anchor="start" x="56.12" y="-30.5" font-family="Helvetica,sans-Serif" font-size="10.00">ComponentNamespace</text>
<text xml:space="preserve" text-anchor="start" x="56.12" y="-18.5" font-family="Helvetica,sans-Serif" font-size="10.00">::oMessage_Model::B</text>
<text xml:space="preserve" text-anchor="middle" x="107.5" y="-6.5" font-family="Helvetica,sans-Serif" font-size="10.00">_oMessage_Model_T</text>
</a>
</g>
</g>
<!-- Node2 -->
<g id="Node000002" class="node">
<title>Node2</title>
<g id="a_Node000002"><a xlink:href="struct_input_data_interface.html" target="_top" xlink:title=" ">
<polygon fill="white" stroke="#bfbfbf" points="97,-118 0,-118 0,-98 97,-98 97,-118"/>
<text xml:space="preserve" text-anchor="middle" x="48.5" y="-104.5" font-family="Helvetica,sans-Serif" font-size="10.00">InputDataInterface</text>
</a>
</g>
</g>
<!-- Node2&#45;&gt;Node1 -->
<g id="edge1_Node000001_Node000002" class="edge">
<title>Node2&#45;&gt;Node1</title>
<g id="a_edge1_Node000001_Node000002"><a xlink:title=" ">
<path fill="none" stroke="#9a32cd" stroke-dasharray="5,2" d="M61.62,-88.32C70.79,-75.26 83.05,-57.8 92.6,-44.22"/>
<polygon fill="#9a32cd" stroke="#9a32cd" points="58.79,-86.26 55.91,-96.45 64.52,-90.28 58.79,-86.26"/>
</a>
</g>
<text xml:space="preserve" text-anchor="start" x="82.77" y="-67.5" font-family="Helvetica,sans-Serif" font-size="10.00" fill="grey">Receive</text>
</g>
<!-- Node3 -->
<g id="Node000003" class="node">
<title>Node3</title>
<g id="a_Node000003"><a xlink:href="struct_output_data_interface.html" target="_top" xlink:title=" ">
<polygon fill="white" stroke="#bfbfbf" points="219.75,-118 115.25,-118 115.25,-98 219.75,-98 219.75,-118"/>
<text xml:space="preserve" text-anchor="middle" x="167.5" y="-104.5" font-family="Helvetica,sans-Serif" font-size="10.00">OutputDataInterface</text>
</a>
</g>
</g>
<!-- Node3&#45;&gt;Node1 -->
<g id="edge2_Node000001_Node000003" class="edge">
<title>Node3&#45;&gt;Node1</title>
<g id="a_edge2_Node000001_Node000003"><a xlink:title=" ">
<path fill="none" stroke="#9a32cd" stroke-dasharray="5,2" d="M154.43,-88.71C145.08,-75.61 132.46,-57.94 122.66,-44.22"/>
<polygon fill="#9a32cd" stroke="#9a32cd" points="151.31,-90.35 159.97,-96.46 157.01,-86.29 151.31,-90.35"/>
</a>
</g>
<text xml:space="preserve" text-anchor="start" x="151.09" y="-67.5" font-family="Helvetica,sans-Serif" font-size="10.00" fill="grey">BusCreator</text>
</g>
</g>
</svg>
